<?xml version="1.0" encoding="UTF-8" standalone="no"?><!DOCTYPE svg PUBLIC "-//W3C//DTD SVG 1.1//EN" "http://www.w3.org/Graphics/SVG/1.1/DTD/svg11.dtd"><svg width="100%" height="100%" viewBox="0 0 85 79" version="1.1" xmlns="http://www.w3.org/2000/svg" xmlns:xlink="http://www.w3.org/1999/xlink" xml:space="preserve" xmlns:serif="http://www.serif.com/" style="fill-rule:evenodd;clip-rule:evenodd;stroke-linejoin:round;stroke-miterlimit:1.41421;"><g><g><path d="M22.619,59.543l-9.845,0c-1.572,0 -2.358,-2.401 -2.358,-2.401c0,0 0,0 0,0c0,-0.124 0.05,-0.243 0.138,-0.331c0.087,-0.088 0.206,-0.137 0.33,-0.137l11.735,0c3.734,0 6.485,-0.879 8.253,-2.636c1.768,-1.757 2.653,-4.626 2.653,-8.609l0,-11.771c0,-4.295 -0.786,-7.409 -2.358,-9.341c-1.572,-1.933 -4.539,-2.899 -8.902,-2.899l-8.901,0c0,0 -1.573,0 -2.421,0c-0.14,0 -0.274,-0.056 -0.372,-0.154c-0.099,-0.099 -0.155,-0.233 -0.155,-0.373c0,0 0,0 0,0c0,-0.859 0.167,-1.464 0.502,-1.816c0.334,-0.351 0.933,-0.527 1.797,-0.527l9.55,0c5.817,0 9.688,1.406 11.613,4.217c0.983,1.405 1.651,2.957 2.005,4.656c0.111,0.536 0.206,1.117 0.282,1.741c0.04,0.053 0.078,0.111 0.114,0.173l9.178,27.084l6.759,-17.084c0.279,-0.846 0.899,-1.268 1.86,-1.268c0.961,0 1.546,0.437 1.755,1.313c0.998,2.28 1.087,2.266 2.735,6.775c1.678,4.592 3.29,7.925 4.024,10.219l8.595,-26.865c0.07,-0.151 0.201,-0.302 0.393,-0.453c0.192,-0.151 0.393,-0.226 0.602,-0.226l0.577,0c0.384,0 0.655,0.098 0.812,0.294c0.157,0.197 0.236,0.363 0.236,0.498c0,0.136 -0.018,0.249 -0.053,0.34l-9.014,28.087c-0.349,0.996 -1.074,1.494 -2.174,1.494c-1.101,0 -1.808,-0.498 -2.122,-1.494l-6.302,-15.743l-6.587,15.834c-0.384,0.936 -1.091,1.403 -2.122,1.403c-1.03,0 -1.738,-0.467 -2.122,-1.403l-6.896,-20.418l0,7.356c0,4.997 -1.051,8.658 -3.154,10.981c-2.102,2.323 -5.649,3.484 -10.64,3.484Z" style="fill:#fff;fill-rule:nonzero;"/><path d="M13.755,31.173c0.218,-0.016 0.433,0.06 0.593,0.21c0.159,0.149 0.249,0.359 0.247,0.578c-0.025,2.815 -0.105,11.811 -0.128,14.479c-0.002,0.197 -0.084,0.385 -0.227,0.52c-0.143,0.135 -0.335,0.206 -0.532,0.197c-0.229,-0.011 -0.489,-0.023 -0.747,-0.036c-0.799,-0.038 -1.428,-0.698 -1.428,-1.498c0.001,-3.003 0.003,-9.93 0.003,-12.897c0,-0.783 0.605,-1.434 1.387,-1.492c0.283,-0.02 0.574,-0.042 0.832,-0.061Z" style="fill:#fff;"/></g></g></svg>